<?xml version="1.0" encoding="utf-8"?>
<!-- Generator: Adobe Illustrator 22.1.0, SVG Export Plug-In . SVG Version: 6.00 Build 0)  -->
<svg version="1.1" id="Layer_1" xmlns="http://www.w3.org/2000/svg" xmlns:xlink="http://www.w3.org/1999/xlink" x="0px" y="0px"
	 viewBox="0 0 80 80" style="enable-background:new 0 0 80 80;" xml:space="preserve">
<style type="text/css">
	.st0{display:none;}
	.st1{display:inline;fill:none;stroke:#0855A7;stroke-width:2;stroke-linecap:round;stroke-miterlimit:10;}
	.st2{display:inline;}
	.st3{fill:none;stroke:#0855A7;stroke-width:2;stroke-linecap:round;stroke-miterlimit:10;}
	.st4{display:inline;fill:#606060;}
	.st5{fill:#FFFFFF;}
</style>
<g class="st0">
	<line class="st1" x1="19.7" y1="70.9" x2="61.1" y2="70.9"/>
	<g class="st2">
		<path class="st3" d="M40.4,56.7H42l0.5-3.5c0.7-4.6,1.1-9.2,1.1-13.8V21.2c0-1.4-0.4-2.8-1.1-4c-0.3-0.5-0.6-1-0.9-1.4
			c-0.6-0.8-1.8-0.8-2.4,0c-0.3,0.4-0.6,0.8-0.9,1.4c-0.7,1.2-1.1,2.6-1.1,4v18.1c0,4.6,0.4,9.3,1.1,13.8l0.5,3.5L40.4,56.7
			L40.4,56.7z"/>
		<path class="st3" d="M37.2,30.1l-16.5,6.4c-1,0.4-2,0.9-2.7,1.7c-0.7,0.7-1.3,1.6-1.3,2.7l20.6-3.1"/>
		<path class="st3" d="M40.4,56.7h-1.6l-0.5-3.5c-0.7-4.6-1.1-9.2-1.1-13.8V21.2c0-1.4,0.4-2.8,1.1-4c0.3-0.5,0.6-1,0.9-1.4
			c0.6-0.8,1.8-0.8,2.4,0c0.3,0.4,0.6,0.8,0.9,1.4c0.7,1.2,1.1,2.6,1.1,4v18.1c0,4.6-0.4,9.3-1.1,13.8L42,56.7H40.4L40.4,56.7z"/>
		<path class="st3" d="M40.4,56.7H42l0.5-3.5c0.7-4.6,1.1-9.2,1.1-13.8V21.2c0-1.4-0.4-2.8-1.1-4c-0.3-0.5-0.6-1-0.9-1.4
			c-0.6-0.8-1.8-0.8-2.4,0c-0.3,0.4-0.6,0.8-0.9,1.4c-0.7,1.2-1.1,2.6-1.1,4v18.1c0,4.6,0.4,9.3,1.1,13.8l0.5,3.5L40.4,56.7
			L40.4,56.7z"/>
		<path class="st3" d="M43.6,30.1l16.5,6.4c1,0.4,1.9,0.9,2.7,1.7c0.7,0.7,1.3,1.6,1.3,2.7l-20.6-3.1"/>
		<path class="st3" d="M34.6,62.5c0-3.2,2.6-5.8,5.8-5.8s5.8,2.6,5.8,5.8"/>
	</g>
</g>
<g class="st0">
	<path class="st4" d="M38.6,13.6c0.5-0.2,1-0.1,1.5-0.1s1-0.1,1.5,0.1c1.7,0.6,3,1.8,4.1,3.1c1.5,1.9,2.5,4.1,3.2,6.4
		c0.9,2.9,1.3,5.9,1.3,9C50,38,48.1,43.9,44.8,48.7c-1.2,1.9-2.4,3.7-3.7,5.6c-0.1,0.2-0.2,0.4-0.3,0.6c-0.5,0-1,0-1.5,0
		c-1.5-2.4-3-4.8-4.4-7.1c-2.4-3.8-3.9-8.2-4.4-12.6c-0.5-3.2-0.2-6.5,0.4-9.7c0.6-2.6,1.5-5.1,2.9-7.4
		C34.8,16.1,36.5,14.4,38.6,13.6z"/>
	<path class="st4" d="M23,20.5c2.8-3.1,6.6-5.3,10.6-6.4c-2.9,3.6-4.9,8-5.6,12.6c-0.4,2.6-0.4,5.2-0.1,7.8c0.5,4.8,2,9.4,4.4,13.6
		c1.2,2,2.5,4,3.8,6c0.2,0.3,0.4,0.5,0.4,0.9c0,1.5,0,3.1,0,4.6c2.3,0,4.6,0,6.9,0c0-1.5,0-3.1,0-4.6c0-0.2,0-0.4,0.1-0.5
		c2.1-3,4.3-6,5.8-9.3c2-4.4,3-9.2,3.1-14c0.1-6.1-2-12.2-5.9-17c2.9,0.7,5.6,2,7.9,3.9c4.5,3.6,7.3,9.2,7.5,14.9
		c-0.1,2.6-0.7,5.1-1.8,7.5c-1.5,3.3-4,6.2-7.1,8.2c-2.5,1.8-4.9,3.8-7.2,5.9c0,1.7,0,3.3,0,5c1.5,0,3.1,0,4.6,0c0,0.8,0,1.5,0,2.3
		c-0.8,0-1.5,0-2.3,0c0,2.2,0,4.4,0,6.5c-0.1,1.4-1.2,2.5-2.5,2.7H34.5c-1-0.1-1.9-0.8-2.3-1.7c-0.3-0.5-0.3-1.1-0.3-1.6
		c0-2,0-4,0-6c-0.8,0-1.5,0-2.3,0c0-0.8,0-1.5,0-2.3c1.6,0,3.1,0,4.7,0c0-1.6,0-3.2,0-4.8c0-0.2-0.2-0.3-0.3-0.5
		c-2.3-2-4.6-3.9-7.1-5.7c-4.7-3.1-8-8.4-8.7-14.1c-0.3-1.8-0.1-3.7,0.3-5.5C19.2,25.8,20.8,22.9,23,20.5z"/>
</g>
<g>
	<path class="st5" d="M17.7,44.8V24.3c0-1.1,0.9-2,2-2h20.4c1.1,0,2,0.9,2,2v20.5c0,0.4-0.3,0.7-0.7,0.7H18.4
		C18,45.5,17.7,45.2,17.7,44.8z M34.2,51.8c0,2.4-1.9,4.2-4.2,4.2s-4.2-1.9-4.2-4.2c0-2.4,1.9-4.2,4.2-4.2S34.2,49.4,34.2,51.8z
		 M32.1,51.8c0-1.2-0.9-2.1-2.1-2.1s-2.1,0.9-2.1,2.1c0,1.2,0.9,2.1,2.1,2.1C31.1,53.9,32.1,53,32.1,51.8z M26.2,47.5h-9.5
		c-0.4,0-0.7,0.3-0.7,0.7v2c0,0.4,0.3,0.7,0.7,0.7h7.6C24.6,49.6,25.2,48.4,26.2,47.5z M56.4,51.8c0,2.4-1.9,4.2-4.2,4.2
		c-2.4,0-4.2-1.9-4.2-4.2c0-2.4,1.9-4.2,4.2-4.2C54.6,47.5,56.4,49.4,56.4,51.8z M54.3,51.8c0-1.2-0.9-2.1-2.1-2.1s-2.1,0.9-2.1,2.1
		c0,1.2,0.9,2.1,2.1,2.1S54.3,53,54.3,51.8z M64,48.2v2c0,0.4-0.3,0.7-0.7,0.7h-5.5c-0.4-2.8-2.8-4.8-5.6-4.8
		c-2.8,0-5.2,2.1-5.6,4.8H35.4c-0.2-1.3-0.9-2.6-1.9-3.5h10.6V27.9c0-0.8,0.6-1.3,1.3-1.3H52c1.8,0,3.5,0.9,4.6,2.4l4.2,6.1
		c0.6,0.9,0.9,2,0.9,3.1v9.3h1.7C63.7,47.5,64,47.8,64,48.2z M57.1,35.3l-3.3-4.7c-0.2-0.2-0.3-0.3-0.6-0.3H48
		c-0.4,0-0.7,0.3-0.7,0.7v4.7c0,0.4,0.3,0.7,0.7,0.7h8.5C57.1,36.4,57.4,35.7,57.1,35.3z"/>
</g>
</svg>
