<?xml version="1.0" encoding="utf-8"?>
<!-- Generator: Adobe Illustrator 22.1.0, SVG Export Plug-In . SVG Version: 6.00 Build 0)  -->
<svg version="1.1" id="Layer_1" xmlns="http://www.w3.org/2000/svg" xmlns:xlink="http://www.w3.org/1999/xlink" x="0px" y="0px"
	 viewBox="0 0 80 80" style="enable-background:new 0 0 80 80;" xml:space="preserve">
<style type="text/css">
	.st0{display:none;}
	.st1{display:inline;fill:none;stroke:#0855A7;stroke-width:2;stroke-linecap:round;stroke-miterlimit:10;}
	.st2{fill:#FFFFFF;}
</style>
<g id="XMLID_17438_" class="st0">
	<path id="XMLID_17442_" class="st1" d="M40.4,45.5L40.4,45.5c-4.7,0-8.4-3.8-8.4-8.4V21.6c0-4.7,3.8-8.4,8.4-8.4l0,0
		c4.7,0,8.4,3.8,8.4,8.4v15.5C48.8,41.8,45,45.5,40.4,45.5z"/>
	<path id="XMLID_17441_" class="st1" d="M26.4,29.4v7.7c0,7.7,6.3,14,14,14s14-6.3,14-14v-7.7"/>
	<line id="XMLID_17440_" class="st1" x1="40.4" y1="51.1" x2="40.4" y2="70.3"/>
	<line id="XMLID_17439_" class="st1" x1="29.4" y1="70.3" x2="51.3" y2="70.3"/>
</g>
<g>
	<g>
		<g>
			<path class="st2" d="M55.9,26.5H30.3c-1.6,0-2.7,1.2-2.7,2.7v15.9c0,1.6,1.2,2.7,2.7,2.7h17.6l4,4c0.2,0.2,0.4,0.3,0.6,0.3
				c0.5,0,0.9-0.4,0.9-0.9v-3.4h2.5c1.6,0,2.7-1.2,2.7-2.7V29.3C58.6,27.8,57.4,26.5,55.9,26.5z M34.2,40.2c-1.4,0-2.5-1.2-2.5-2.5
				c0-1.4,1.2-2.5,2.5-2.5s2.5,1.2,2.5,2.5C36.8,39.1,35.6,40.2,34.2,40.2z M43.2,40.2c-1.4,0-2.5-1.2-2.5-2.5
				c0-1.4,1.2-2.5,2.5-2.5c1.4,0,2.5,1.2,2.5,2.5C45.7,39.1,44.6,40.2,43.2,40.2z M52.1,40.2c-1.4,0-2.5-1.2-2.5-2.5
				c0-1.4,1.2-2.5,2.5-2.5s2.5,1.2,2.5,2.5C54.6,39.1,53.5,40.2,52.1,40.2z"/>
			<path class="st2" d="M26,45.3v-5.4h-2.8c-1,0-1.8,0.8-1.8,1.8v10.4c-0.1,1,0.8,1.9,1.8,1.9h1.6v2.2c0,0.3,0.3,0.6,0.6,0.6
				c0.2,0,0.3-0.1,0.4-0.2l2.6-2.6H40c1,0,1.8-0.8,1.8-1.8v-2.6H30.3C27.9,49.6,26,47.7,26,45.3z"/>
		</g>
	</g>
</g>
</svg>
