<?xml version="1.0" encoding="utf-8"?>
<!-- Generator: Adobe Illustrator 26.1.0, SVG Export Plug-In . SVG Version: 6.00 Build 0)  -->
<svg version="1.1" id="Layer_1" xmlns="http://www.w3.org/2000/svg" xmlns:xlink="http://www.w3.org/1999/xlink" x="0px" y="0px"
	 viewBox="0 0 80 80" style="enable-background:new 0 0 80 80;" xml:space="preserve">
<style type="text/css">
	.st0{display:none;}
	.st1{display:inline;fill:none;stroke:#0855A7;stroke-width:2;stroke-linecap:round;stroke-linejoin:round;stroke-miterlimit:10;}
	.st2{display:inline;}
	.st3{fill:none;stroke:#0855A7;stroke-width:2;stroke-linecap:round;stroke-linejoin:round;stroke-miterlimit:10;}
	.st4{fill:#FFFFFF;}
</style>
<g class="st0">
	<path class="st1" d="M52.5,58.6V52V22.4H19.6v36.2c0,3.1,2.5,5.7,5.6,5.7h23.2h4.1h5.6C55,64.2,52.5,61.7,52.5,58.6z"/>
	<path class="st1" d="M52.5,39.8h10.3v19.9c0,2.5-2,4.5-4.5,4.5"/>
	<rect x="19.6" y="22.4" class="st1" width="12.6" height="17.4"/>
	<g class="st2">
		<line class="st3" x1="36.1" y1="39.8" x2="48.5" y2="39.8"/>
		<line class="st3" x1="36.1" y1="34.9" x2="48.5" y2="34.9"/>
		<line class="st3" x1="36.1" y1="29.9" x2="48.5" y2="29.9"/>
	</g>
	<line class="st1" x1="23.5" y1="44.7" x2="48.5" y2="44.7"/>
</g>
<g>
	<path class="st4" d="M44.6,51.6l-2.7,2.7l-1.5-1.5l2.7-2.7v-5.5h-8.4v-2.2h8.5l5.6-5.6c0.7-0.7,1.7-1.4,2.7-1.9v-3.8h7.3v-2.4
		c0-2.2-1.8-4.2-4.2-4.2H33.1c-2.2,0-4.1,1.8-4.1,4.1v26h-6.1V57c0,2.2,1.8,4.2,4.2,4.2h20.3c0.7,0,1.4-0.2,2-0.5
		c1.2-0.7,2.2-2.1,2.2-3.6v-5.5C51.6,51.6,44.6,51.6,44.6,51.6z M46.9,31.8V34H34.7v-2.2H46.9z M36.8,47.9v2.2h-2.2v-2.2H36.8z
		 M34.7,37.2h6.9v2.2h-6.9V37.2z"/>
	<path class="st4" d="M58.7,38.2l-0.1-2l-2-0.1c-0.2,0-0.2,0-0.4,0c-1.7,0-3.4,0.6-4.8,1.5l1.3,1.3l-1.5,1.5L49.8,39l-4.6,4.5V48
		l2.4-2.4l1.5,1.5l-2.4,2.4h4.5l2.1-2.1L51.9,46l1.5-1.5l1.4,1.4l1.4-1.4C58,42.8,58.9,40.5,58.7,38.2z"/>
</g>
</svg>
