<?xml version="1.0" encoding="utf-8"?>
<!-- Generator: Adobe Illustrator 26.1.0, SVG Export Plug-In . SVG Version: 6.00 Build 0)  -->
<svg version="1.1" id="Layer_1" xmlns="http://www.w3.org/2000/svg" xmlns:xlink="http://www.w3.org/1999/xlink" x="0px" y="0px"
	 viewBox="0 0 80 80" style="enable-background:new 0 0 80 80;" xml:space="preserve">
<style type="text/css">
	.st0{display:none;}
	.st1{display:inline;fill:none;stroke:#0855A7;stroke-width:2;stroke-linecap:round;stroke-linejoin:round;stroke-miterlimit:10;}
	.st2{display:inline;}
	.st3{fill:none;stroke:#0855A7;stroke-width:2;stroke-linecap:round;stroke-linejoin:round;stroke-miterlimit:10;}
	.st4{fill:#FFFFFF;}
</style>
<g class="st0">
	<path class="st1" d="M52.5,58.6V52V22.4H19.6v36.2c0,3.1,2.5,5.7,5.6,5.7h23.2h4.1h5.6C55,64.2,52.5,61.7,52.5,58.6z"/>
	<path class="st1" d="M52.5,39.8h10.3v19.9c0,2.5-2,4.5-4.5,4.5"/>
	<rect x="19.6" y="22.4" class="st1" width="12.6" height="17.4"/>
	<g class="st2">
		<line class="st3" x1="36.1" y1="39.8" x2="48.5" y2="39.8"/>
		<line class="st3" x1="36.1" y1="34.9" x2="48.5" y2="34.9"/>
		<line class="st3" x1="36.1" y1="29.9" x2="48.5" y2="29.9"/>
	</g>
	<line class="st1" x1="23.5" y1="44.7" x2="48.5" y2="44.7"/>
</g>
<g>
	<g>
		<path class="st4" d="M57.3,20.7c0.1,0,0.2,0,0.5,0c1.7,4.2,3.5,8.2,5.2,12.4c-1.3,1.2-2.7,2.2-3.9,3.4c0,6.5,0,12.9,0,19.4
			c1.3,0,2.5,0,3.8,0c0,1.6,0,3.4,0,5c-14.9,0-29.9,0-44.9,0c0-1.6,0-3.4,0-5c1.3,0,2.5,0,3.8,0c0-6.5,0-12.9,0-19.4
			c-1.3-1.2-2.7-2.2-3.9-3.4c1.7-4.2,3.5-8.2,5.2-12.4c0.1,0,0.2,0,0.3,0 M24.3,20.7c10.6,0,21.3,0,31.9,0 M30.3,21.8
			c-0.5,3.6-1,7.2-1.5,10.8c2.4,0,4.9,0,7.4,0c0.2-3.6,0.3-7.2,0.6-10.8C34.6,21.8,32.4,21.8,30.3,21.8z M43.9,21.8
			c0.2,3.6,0.3,7.2,0.6,10.8c2.4,0,4.9,0,7.3,0c-0.5-3.6-1-7.2-1.5-10.8C48.1,21.8,46,21.8,43.9,21.8z M19.7,33.4
			c1,0.9,2.1,1.7,3.1,2.7c1.5,0,3,0,4.4,0c0.1-0.9,0.2-1.7,0.3-2.7C25,33.4,22.4,33.4,19.7,33.4z M37.2,33.4c0,0.9-0.1,1.7-0.1,2.7
			c2.2,0,4.4,0,6.6,0c0-0.9-0.1-1.7-0.1-2.7C41.3,33.4,39.2,33.4,37.2,33.4z M52.9,33.4c0.1,0.9,0.2,1.7,0.3,2.7c1.5,0,3,0,4.4,0
			c1-0.9,2.1-1.7,3.1-2.7C58.2,33.4,55.5,33.4,52.9,33.4z M26.8,41.2c0,4.9,0,9.7,0,14.7c3,0,6,0,9,0c0-4.9,0-9.7,0-14.7
			C32.8,41.2,29.8,41.2,26.8,41.2z M41.7,41.2c0,2.4,0,5,0,7.4c4.3,0,8.7,0,12.9,0c0-2.4,0-5,0-7.4C50.3,41.2,46.1,41.2,41.7,41.2z
			 M41.2,51.1c0,0.3,0,0.7,0,1c4.6,0,9.4,0,14,0c0-0.3,0-0.7,0-1C50.5,51.1,45.8,51.1,41.2,51.1z"/>
	</g>
</g>
</svg>
